<mxfile host="app.diagrams.net" modified="2020-11-04T12:15:46.268Z" agent="5.0 (Windows NT 10.0; Win64; x64) AppleWebKit/537.36 (KHTML, like Gecko) Chrome/86.0.4240.111 Safari/537.36" etag="9aJhttZKhovGccFLC_OS" version="13.8.9" type="github">
  <diagram id="laVmVUHqH2EGiY9fDYmY" name="Page-1">
    <mxGraphModel dx="1422" dy="1874" grid="1" gridSize="10" guides="1" tooltips="1" connect="1" arrows="1" fold="1" page="1" pageScale="1" pageWidth="827" pageHeight="1169" math="0" shadow="0">
      <root>
        <mxCell id="0" />
        <mxCell id="1" parent="0" />
        <mxCell id="kpGWdIf7cratf-CfFsrV-5" style="edgeStyle=orthogonalEdgeStyle;rounded=0;orthogonalLoop=1;jettySize=auto;html=1;endArrow=none;endFill=0;" parent="1" source="kpGWdIf7cratf-CfFsrV-1" target="kpGWdIf7cratf-CfFsrV-2" edge="1">
          <mxGeometry relative="1" as="geometry">
            <Array as="points">
              <mxPoint x="140" y="-180" />
            </Array>
          </mxGeometry>
        </mxCell>
        <mxCell id="kpGWdIf7cratf-CfFsrV-10" value="1:Create (List&amp;lt;SimpleEmployeeView&amp;gt;)" style="edgeLabel;html=1;align=center;verticalAlign=middle;resizable=0;points=[];" parent="kpGWdIf7cratf-CfFsrV-5" vertex="1" connectable="0">
          <mxGeometry x="0.1111" y="-25" relative="1" as="geometry">
            <mxPoint x="79" y="-35" as="offset" />
          </mxGeometry>
        </mxCell>
        <mxCell id="kpGWdIf7cratf-CfFsrV-6" style="edgeStyle=orthogonalEdgeStyle;rounded=0;orthogonalLoop=1;jettySize=auto;html=1;entryX=0;entryY=0.5;entryDx=0;entryDy=0;endArrow=none;endFill=0;exitX=0.5;exitY=1;exitDx=0;exitDy=0;" parent="1" source="kpGWdIf7cratf-CfFsrV-1" target="kpGWdIf7cratf-CfFsrV-3" edge="1">
          <mxGeometry relative="1" as="geometry">
            <Array as="points">
              <mxPoint x="140" y="80" />
              <mxPoint x="400" y="80" />
            </Array>
          </mxGeometry>
        </mxCell>
        <mxCell id="kpGWdIf7cratf-CfFsrV-9" value="1:Create (List&amp;lt;ProductView&amp;gt;)" style="edgeLabel;html=1;align=center;verticalAlign=middle;resizable=0;points=[];" parent="kpGWdIf7cratf-CfFsrV-6" vertex="1" connectable="0">
          <mxGeometry x="0.3026" y="-4" relative="1" as="geometry">
            <mxPoint x="-24" y="-24" as="offset" />
          </mxGeometry>
        </mxCell>
        <mxCell id="kpGWdIf7cratf-CfFsrV-1" value=":MainMenu" style="rounded=0;whiteSpace=wrap;html=1;" parent="1" vertex="1">
          <mxGeometry x="80" y="40" width="120" height="20" as="geometry" />
        </mxCell>
        <mxCell id="4bT4MQSPzCxlzFVwJYg--5" style="edgeStyle=orthogonalEdgeStyle;rounded=0;orthogonalLoop=1;jettySize=auto;html=1;entryX=0;entryY=0.5;entryDx=0;entryDy=0;endArrow=none;endFill=0;" edge="1" parent="1" source="kpGWdIf7cratf-CfFsrV-2" target="4bT4MQSPzCxlzFVwJYg--1">
          <mxGeometry relative="1" as="geometry">
            <Array as="points">
              <mxPoint x="560" y="-180" />
              <mxPoint x="560" y="-180" />
            </Array>
          </mxGeometry>
        </mxCell>
        <mxCell id="4bT4MQSPzCxlzFVwJYg--14" value=":Create(EmpoyeeView)" style="edgeLabel;html=1;align=center;verticalAlign=middle;resizable=0;points=[];" vertex="1" connectable="0" parent="4bT4MQSPzCxlzFVwJYg--5">
          <mxGeometry x="0.1286" y="-2" relative="1" as="geometry">
            <mxPoint y="-12.03" as="offset" />
          </mxGeometry>
        </mxCell>
        <mxCell id="4bT4MQSPzCxlzFVwJYg--39" value=":Create(ProductView)" style="edgeLabel;html=1;align=center;verticalAlign=middle;resizable=0;points=[];" vertex="1" connectable="0" parent="4bT4MQSPzCxlzFVwJYg--5">
          <mxGeometry x="0.1286" y="-2" relative="1" as="geometry">
            <mxPoint y="188" as="offset" />
          </mxGeometry>
        </mxCell>
        <mxCell id="4bT4MQSPzCxlzFVwJYg--41" value=":Create(ProductView)" style="edgeLabel;html=1;align=center;verticalAlign=middle;resizable=0;points=[];" vertex="1" connectable="0" parent="4bT4MQSPzCxlzFVwJYg--5">
          <mxGeometry x="0.1286" y="-2" relative="1" as="geometry">
            <mxPoint x="60.69" y="237.97" as="offset" />
          </mxGeometry>
        </mxCell>
        <mxCell id="4bT4MQSPzCxlzFVwJYg--6" style="edgeStyle=orthogonalEdgeStyle;rounded=0;orthogonalLoop=1;jettySize=auto;html=1;exitX=1;exitY=0.5;exitDx=0;exitDy=0;entryX=0;entryY=0.5;entryDx=0;entryDy=0;endArrow=none;endFill=0;" edge="1" parent="1" source="kpGWdIf7cratf-CfFsrV-2" target="4bT4MQSPzCxlzFVwJYg--2">
          <mxGeometry relative="1" as="geometry">
            <Array as="points">
              <mxPoint x="474" y="-250" />
            </Array>
          </mxGeometry>
        </mxCell>
        <mxCell id="4bT4MQSPzCxlzFVwJYg--13" value=":Create()" style="edgeLabel;html=1;align=center;verticalAlign=middle;resizable=0;points=[];" vertex="1" connectable="0" parent="4bT4MQSPzCxlzFVwJYg--6">
          <mxGeometry x="0.2349" y="-3" relative="1" as="geometry">
            <mxPoint x="10.28" y="-13.02" as="offset" />
          </mxGeometry>
        </mxCell>
        <mxCell id="4bT4MQSPzCxlzFVwJYg--37" value=":Create()" style="edgeLabel;html=1;align=center;verticalAlign=middle;resizable=0;points=[];" vertex="1" connectable="0" parent="4bT4MQSPzCxlzFVwJYg--6">
          <mxGeometry x="0.2349" y="-3" relative="1" as="geometry">
            <mxPoint x="10.28" y="196.98" as="offset" />
          </mxGeometry>
        </mxCell>
        <mxCell id="kpGWdIf7cratf-CfFsrV-2" value=":HrMainMenu" style="rounded=0;whiteSpace=wrap;html=1;" parent="1" vertex="1">
          <mxGeometry x="354" y="-190" width="120" height="20" as="geometry" />
        </mxCell>
        <mxCell id="4bT4MQSPzCxlzFVwJYg--30" style="edgeStyle=orthogonalEdgeStyle;rounded=0;orthogonalLoop=1;jettySize=auto;html=1;exitX=0.5;exitY=0;exitDx=0;exitDy=0;entryX=0;entryY=0.5;entryDx=0;entryDy=0;endArrow=none;endFill=0;" edge="1" parent="1" source="kpGWdIf7cratf-CfFsrV-3" target="4bT4MQSPzCxlzFVwJYg--27">
          <mxGeometry relative="1" as="geometry">
            <Array as="points">
              <mxPoint x="460" y="20" />
            </Array>
          </mxGeometry>
        </mxCell>
        <mxCell id="4bT4MQSPzCxlzFVwJYg--32" style="edgeStyle=orthogonalEdgeStyle;rounded=0;orthogonalLoop=1;jettySize=auto;html=1;exitX=1;exitY=0.5;exitDx=0;exitDy=0;entryX=0;entryY=0.5;entryDx=0;entryDy=0;endArrow=none;endFill=0;" edge="1" parent="1" source="kpGWdIf7cratf-CfFsrV-3" target="4bT4MQSPzCxlzFVwJYg--28">
          <mxGeometry relative="1" as="geometry" />
        </mxCell>
        <mxCell id="kpGWdIf7cratf-CfFsrV-3" value=":ProductMainMenu" style="rounded=0;whiteSpace=wrap;html=1;" parent="1" vertex="1">
          <mxGeometry x="400" y="80" width="120" height="20" as="geometry" />
        </mxCell>
        <mxCell id="kpGWdIf7cratf-CfFsrV-4" value=":CustomerMainMenu" style="rounded=0;whiteSpace=wrap;html=1;" parent="1" vertex="1">
          <mxGeometry x="400" y="260" width="120" height="20" as="geometry" />
        </mxCell>
        <mxCell id="kpGWdIf7cratf-CfFsrV-8" style="edgeStyle=orthogonalEdgeStyle;rounded=0;orthogonalLoop=1;jettySize=auto;html=1;entryX=0;entryY=0.5;entryDx=0;entryDy=0;endArrow=none;endFill=0;exitX=0.5;exitY=1;exitDx=0;exitDy=0;" parent="1" source="kpGWdIf7cratf-CfFsrV-1" target="kpGWdIf7cratf-CfFsrV-4" edge="1">
          <mxGeometry relative="1" as="geometry">
            <Array as="points">
              <mxPoint x="140" y="270" />
            </Array>
          </mxGeometry>
        </mxCell>
        <mxCell id="kpGWdIf7cratf-CfFsrV-11" value="1:Create (List&amp;lt;SimpleCustumerView&amp;gt;)" style="edgeLabel;html=1;align=center;verticalAlign=middle;resizable=0;points=[];" parent="kpGWdIf7cratf-CfFsrV-8" vertex="1" connectable="0">
          <mxGeometry x="0.1875" y="3" relative="1" as="geometry">
            <mxPoint x="51" y="-7" as="offset" />
          </mxGeometry>
        </mxCell>
        <mxCell id="4bT4MQSPzCxlzFVwJYg--9" style="edgeStyle=orthogonalEdgeStyle;rounded=0;orthogonalLoop=1;jettySize=auto;html=1;exitX=1;exitY=0.5;exitDx=0;exitDy=0;endArrow=none;endFill=0;" edge="1" parent="1" source="4bT4MQSPzCxlzFVwJYg--1" target="4bT4MQSPzCxlzFVwJYg--4">
          <mxGeometry relative="1" as="geometry" />
        </mxCell>
        <mxCell id="4bT4MQSPzCxlzFVwJYg--12" style="edgeStyle=orthogonalEdgeStyle;rounded=0;orthogonalLoop=1;jettySize=auto;html=1;exitX=0.5;exitY=1;exitDx=0;exitDy=0;entryX=0.5;entryY=0;entryDx=0;entryDy=0;endArrow=none;endFill=0;" edge="1" parent="1" source="4bT4MQSPzCxlzFVwJYg--1" target="4bT4MQSPzCxlzFVwJYg--3">
          <mxGeometry relative="1" as="geometry" />
        </mxCell>
        <mxCell id="4bT4MQSPzCxlzFVwJYg--1" value=":HrDetailMenu" style="rounded=0;whiteSpace=wrap;html=1;" vertex="1" parent="1">
          <mxGeometry x="640" y="-190" width="120" height="20" as="geometry" />
        </mxCell>
        <mxCell id="4bT4MQSPzCxlzFVwJYg--10" style="edgeStyle=orthogonalEdgeStyle;rounded=0;orthogonalLoop=1;jettySize=auto;html=1;exitX=1;exitY=0.5;exitDx=0;exitDy=0;endArrow=none;endFill=0;entryX=0;entryY=0.5;entryDx=0;entryDy=0;" edge="1" parent="1" source="4bT4MQSPzCxlzFVwJYg--2" target="4bT4MQSPzCxlzFVwJYg--4">
          <mxGeometry relative="1" as="geometry">
            <mxPoint x="900" y="-210" as="targetPoint" />
          </mxGeometry>
        </mxCell>
        <mxCell id="4bT4MQSPzCxlzFVwJYg--15" value=":CreateEmployee(Employee)" style="edgeLabel;html=1;align=center;verticalAlign=middle;resizable=0;points=[];" vertex="1" connectable="0" parent="4bT4MQSPzCxlzFVwJYg--10">
          <mxGeometry x="-0.6969" y="2" relative="1" as="geometry">
            <mxPoint x="58.62" y="-8" as="offset" />
          </mxGeometry>
        </mxCell>
        <mxCell id="4bT4MQSPzCxlzFVwJYg--38" value=":CreateProduct(product, description)" style="edgeLabel;html=1;align=center;verticalAlign=middle;resizable=0;points=[];" vertex="1" connectable="0" parent="4bT4MQSPzCxlzFVwJYg--10">
          <mxGeometry x="-0.6969" y="2" relative="1" as="geometry">
            <mxPoint x="83" y="142" as="offset" />
          </mxGeometry>
        </mxCell>
        <mxCell id="4bT4MQSPzCxlzFVwJYg--2" value=":HrAddMenu" style="rounded=0;whiteSpace=wrap;html=1;" vertex="1" parent="1">
          <mxGeometry x="640" y="-260" width="120" height="20" as="geometry" />
        </mxCell>
        <mxCell id="4bT4MQSPzCxlzFVwJYg--11" style="edgeStyle=orthogonalEdgeStyle;rounded=0;orthogonalLoop=1;jettySize=auto;html=1;exitX=1;exitY=0.5;exitDx=0;exitDy=0;endArrow=none;endFill=0;" edge="1" parent="1" source="4bT4MQSPzCxlzFVwJYg--3">
          <mxGeometry relative="1" as="geometry">
            <mxPoint x="900" y="-180" as="targetPoint" />
            <Array as="points">
              <mxPoint x="1000" y="-120" />
              <mxPoint x="1000" y="-180" />
            </Array>
          </mxGeometry>
        </mxCell>
        <mxCell id="4bT4MQSPzCxlzFVwJYg--3" value=":HrUpdateMenu" style="rounded=0;whiteSpace=wrap;html=1;" vertex="1" parent="1">
          <mxGeometry x="640" y="-130" width="120" height="20" as="geometry" />
        </mxCell>
        <mxCell id="4bT4MQSPzCxlzFVwJYg--47" style="edgeStyle=orthogonalEdgeStyle;rounded=0;orthogonalLoop=1;jettySize=auto;html=1;exitX=1;exitY=0.5;exitDx=0;exitDy=0;entryX=0;entryY=0.5;entryDx=0;entryDy=0;endArrow=none;endFill=0;" edge="1" parent="1" source="4bT4MQSPzCxlzFVwJYg--4" target="4bT4MQSPzCxlzFVwJYg--45">
          <mxGeometry relative="1" as="geometry" />
        </mxCell>
        <mxCell id="4bT4MQSPzCxlzFVwJYg--55" style="edgeStyle=orthogonalEdgeStyle;rounded=0;orthogonalLoop=1;jettySize=auto;html=1;exitX=0.5;exitY=0;exitDx=0;exitDy=0;entryX=0.5;entryY=0;entryDx=0;entryDy=0;endArrow=none;endFill=0;" edge="1" parent="1" source="4bT4MQSPzCxlzFVwJYg--4" target="kpGWdIf7cratf-CfFsrV-2">
          <mxGeometry relative="1" as="geometry">
            <Array as="points">
              <mxPoint x="1000" y="-310" />
              <mxPoint x="414" y="-310" />
            </Array>
          </mxGeometry>
        </mxCell>
        <mxCell id="4bT4MQSPzCxlzFVwJYg--4" value=":HrManager" style="rounded=0;whiteSpace=wrap;html=1;" vertex="1" parent="1">
          <mxGeometry x="940" y="-260" width="120" height="20" as="geometry" />
        </mxCell>
        <mxCell id="4bT4MQSPzCxlzFVwJYg--18" value="Employee" style="text;html=1;align=center;verticalAlign=middle;resizable=0;points=[];autosize=1;" vertex="1" parent="1">
          <mxGeometry x="825" y="-250" width="70" height="20" as="geometry" />
        </mxCell>
        <mxCell id="4bT4MQSPzCxlzFVwJYg--20" value=":Update(Emlpoyee)" style="text;html=1;align=center;verticalAlign=middle;resizable=0;points=[];autosize=1;" vertex="1" parent="1">
          <mxGeometry x="800" y="-140" width="120" height="20" as="geometry" />
        </mxCell>
        <mxCell id="4bT4MQSPzCxlzFVwJYg--23" value=":Delete(id)" style="text;html=1;align=center;verticalAlign=middle;resizable=0;points=[];autosize=1;" vertex="1" parent="1">
          <mxGeometry x="815" y="-200" width="70" height="20" as="geometry" />
        </mxCell>
        <mxCell id="4bT4MQSPzCxlzFVwJYg--24" value=":Create(SimpleEmployee)" style="text;html=1;align=center;verticalAlign=middle;resizable=0;points=[];autosize=1;" vertex="1" parent="1">
          <mxGeometry x="550" y="-160" width="150" height="20" as="geometry" />
        </mxCell>
        <mxCell id="4bT4MQSPzCxlzFVwJYg--25" value=":HrAddMenu" style="rounded=0;whiteSpace=wrap;html=1;" vertex="1" parent="1">
          <mxGeometry x="640" y="-260" width="120" height="20" as="geometry" />
        </mxCell>
        <mxCell id="4bT4MQSPzCxlzFVwJYg--26" value=":HrDetailMenu" style="rounded=0;whiteSpace=wrap;html=1;" vertex="1" parent="1">
          <mxGeometry x="640" y="-190" width="120" height="20" as="geometry" />
        </mxCell>
        <mxCell id="4bT4MQSPzCxlzFVwJYg--34" style="edgeStyle=orthogonalEdgeStyle;rounded=0;orthogonalLoop=1;jettySize=auto;html=1;exitX=1;exitY=0.5;exitDx=0;exitDy=0;entryX=0;entryY=0.5;entryDx=0;entryDy=0;endArrow=none;endFill=0;" edge="1" parent="1" source="4bT4MQSPzCxlzFVwJYg--27" target="4bT4MQSPzCxlzFVwJYg--33">
          <mxGeometry relative="1" as="geometry" />
        </mxCell>
        <mxCell id="4bT4MQSPzCxlzFVwJYg--27" value=":ProductAddMenu" style="rounded=0;whiteSpace=wrap;html=1;" vertex="1" parent="1">
          <mxGeometry x="640" y="10" width="120" height="20" as="geometry" />
        </mxCell>
        <mxCell id="4bT4MQSPzCxlzFVwJYg--35" style="edgeStyle=orthogonalEdgeStyle;rounded=0;orthogonalLoop=1;jettySize=auto;html=1;exitX=1;exitY=0.5;exitDx=0;exitDy=0;entryX=0.583;entryY=1;entryDx=0;entryDy=0;entryPerimeter=0;endArrow=none;endFill=0;" edge="1" parent="1" source="4bT4MQSPzCxlzFVwJYg--28" target="4bT4MQSPzCxlzFVwJYg--33">
          <mxGeometry relative="1" as="geometry" />
        </mxCell>
        <mxCell id="4bT4MQSPzCxlzFVwJYg--40" style="edgeStyle=orthogonalEdgeStyle;rounded=0;orthogonalLoop=1;jettySize=auto;html=1;exitX=0.5;exitY=1;exitDx=0;exitDy=0;endArrow=none;endFill=0;" edge="1" parent="1" source="4bT4MQSPzCxlzFVwJYg--28" target="4bT4MQSPzCxlzFVwJYg--29">
          <mxGeometry relative="1" as="geometry" />
        </mxCell>
        <mxCell id="4bT4MQSPzCxlzFVwJYg--28" value=":ProductDetailMenu" style="rounded=0;whiteSpace=wrap;html=1;" vertex="1" parent="1">
          <mxGeometry x="640" y="80" width="120" height="20" as="geometry" />
        </mxCell>
        <mxCell id="4bT4MQSPzCxlzFVwJYg--36" style="edgeStyle=orthogonalEdgeStyle;rounded=0;orthogonalLoop=1;jettySize=auto;html=1;exitX=1;exitY=0.5;exitDx=0;exitDy=0;endArrow=none;endFill=0;" edge="1" parent="1" source="4bT4MQSPzCxlzFVwJYg--29">
          <mxGeometry relative="1" as="geometry">
            <mxPoint x="1020" y="30" as="targetPoint" />
          </mxGeometry>
        </mxCell>
        <mxCell id="4bT4MQSPzCxlzFVwJYg--29" value=":ProductUpdateMenu" style="rounded=0;whiteSpace=wrap;html=1;" vertex="1" parent="1">
          <mxGeometry x="640" y="140" width="120" height="20" as="geometry" />
        </mxCell>
        <mxCell id="4bT4MQSPzCxlzFVwJYg--59" style="edgeStyle=orthogonalEdgeStyle;rounded=0;orthogonalLoop=1;jettySize=auto;html=1;exitX=1;exitY=0.5;exitDx=0;exitDy=0;entryX=0;entryY=0.5;entryDx=0;entryDy=0;endArrow=none;endFill=0;" edge="1" parent="1" source="4bT4MQSPzCxlzFVwJYg--33" target="4bT4MQSPzCxlzFVwJYg--58">
          <mxGeometry relative="1" as="geometry" />
        </mxCell>
        <mxCell id="4bT4MQSPzCxlzFVwJYg--67" style="edgeStyle=orthogonalEdgeStyle;rounded=0;orthogonalLoop=1;jettySize=auto;html=1;exitX=0.5;exitY=0;exitDx=0;exitDy=0;entryX=0.25;entryY=0;entryDx=0;entryDy=0;endArrow=none;endFill=0;" edge="1" parent="1" source="4bT4MQSPzCxlzFVwJYg--33" target="kpGWdIf7cratf-CfFsrV-3">
          <mxGeometry relative="1" as="geometry">
            <Array as="points">
              <mxPoint x="1010" y="-30" />
              <mxPoint x="430" y="-30" />
            </Array>
          </mxGeometry>
        </mxCell>
        <mxCell id="4bT4MQSPzCxlzFVwJYg--33" value=":ProductManager" style="rounded=0;whiteSpace=wrap;html=1;" vertex="1" parent="1">
          <mxGeometry x="950" y="10" width="120" height="20" as="geometry" />
        </mxCell>
        <mxCell id="4bT4MQSPzCxlzFVwJYg--42" value=":Delete(id)" style="text;html=1;align=center;verticalAlign=middle;resizable=0;points=[];autosize=1;" vertex="1" parent="1">
          <mxGeometry x="830" y="70" width="70" height="20" as="geometry" />
        </mxCell>
        <mxCell id="4bT4MQSPzCxlzFVwJYg--43" value="product" style="text;html=1;align=center;verticalAlign=middle;resizable=0;points=[];autosize=1;" vertex="1" parent="1">
          <mxGeometry x="830" y="20" width="60" height="20" as="geometry" />
        </mxCell>
        <mxCell id="4bT4MQSPzCxlzFVwJYg--44" value=":Update(Product)" style="text;html=1;align=center;verticalAlign=middle;resizable=0;points=[];autosize=1;" vertex="1" parent="1">
          <mxGeometry x="827" y="130" width="110" height="20" as="geometry" />
        </mxCell>
        <mxCell id="4bT4MQSPzCxlzFVwJYg--45" value=":dbEmployee" style="rounded=0;whiteSpace=wrap;html=1;" vertex="1" parent="1">
          <mxGeometry x="1170" y="-260" width="120" height="20" as="geometry" />
        </mxCell>
        <mxCell id="4bT4MQSPzCxlzFVwJYg--48" value="Add(employee)" style="text;html=1;align=center;verticalAlign=middle;resizable=0;points=[];autosize=1;" vertex="1" parent="1">
          <mxGeometry x="1070" y="-330" width="100" height="20" as="geometry" />
        </mxCell>
        <mxCell id="4bT4MQSPzCxlzFVwJYg--49" value="1:findById(id)" style="text;html=1;align=center;verticalAlign=middle;resizable=0;points=[];autosize=1;" vertex="1" parent="1">
          <mxGeometry x="1075" y="-350" width="90" height="20" as="geometry" />
        </mxCell>
        <mxCell id="4bT4MQSPzCxlzFVwJYg--50" value="1:employee" style="text;html=1;align=center;verticalAlign=middle;resizable=0;points=[];autosize=1;" vertex="1" parent="1">
          <mxGeometry x="1080" y="-240" width="80" height="20" as="geometry" />
        </mxCell>
        <mxCell id="4bT4MQSPzCxlzFVwJYg--51" value="3:Update(employee)" style="text;html=1;align=center;verticalAlign=middle;resizable=0;points=[];autosize=1;" vertex="1" parent="1">
          <mxGeometry x="1060" y="-310" width="120" height="20" as="geometry" />
        </mxCell>
        <mxCell id="4bT4MQSPzCxlzFVwJYg--52" value="3:employee" style="text;html=1;align=center;verticalAlign=middle;resizable=0;points=[];autosize=1;" vertex="1" parent="1">
          <mxGeometry x="1080" y="-220" width="80" height="20" as="geometry" />
        </mxCell>
        <mxCell id="4bT4MQSPzCxlzFVwJYg--53" value="4:Items.Get(List&amp;lt;employee&amp;gt;)" style="text;html=1;align=center;verticalAlign=middle;resizable=0;points=[];autosize=1;" vertex="1" parent="1">
          <mxGeometry x="1035" y="-290" width="170" height="20" as="geometry" />
        </mxCell>
        <mxCell id="4bT4MQSPzCxlzFVwJYg--54" value="4:List&amp;lt;employee&amp;gt;" style="text;html=1;align=center;verticalAlign=middle;resizable=0;points=[];autosize=1;" vertex="1" parent="1">
          <mxGeometry x="1065" y="-200" width="110" height="20" as="geometry" />
        </mxCell>
        <mxCell id="4bT4MQSPzCxlzFVwJYg--56" value="GetAll()" style="text;html=1;align=center;verticalAlign=middle;resizable=0;points=[];autosize=1;" vertex="1" parent="1">
          <mxGeometry x="700" y="-330" width="60" height="20" as="geometry" />
        </mxCell>
        <mxCell id="4bT4MQSPzCxlzFVwJYg--57" value="List&amp;lt;SimplEmployeeView&amp;gt;" style="text;html=1;align=center;verticalAlign=middle;resizable=0;points=[];autosize=1;" vertex="1" parent="1">
          <mxGeometry x="650" y="-310" width="160" height="20" as="geometry" />
        </mxCell>
        <mxCell id="4bT4MQSPzCxlzFVwJYg--58" value=":dbEmployee" style="rounded=0;whiteSpace=wrap;html=1;" vertex="1" parent="1">
          <mxGeometry x="1165" y="10" width="120" height="20" as="geometry" />
        </mxCell>
        <mxCell id="4bT4MQSPzCxlzFVwJYg--60" value="Add(employee)" style="text;html=1;align=center;verticalAlign=middle;resizable=0;points=[];autosize=1;" vertex="1" parent="1">
          <mxGeometry x="1070" y="-60" width="100" height="20" as="geometry" />
        </mxCell>
        <mxCell id="4bT4MQSPzCxlzFVwJYg--61" value="1:findById(id)" style="text;html=1;align=center;verticalAlign=middle;resizable=0;points=[];autosize=1;" vertex="1" parent="1">
          <mxGeometry x="1075" y="-80" width="90" height="20" as="geometry" />
        </mxCell>
        <mxCell id="4bT4MQSPzCxlzFVwJYg--62" value="3:Update(employee)" style="text;html=1;align=center;verticalAlign=middle;resizable=0;points=[];autosize=1;" vertex="1" parent="1">
          <mxGeometry x="1060" y="-40" width="120" height="20" as="geometry" />
        </mxCell>
        <mxCell id="4bT4MQSPzCxlzFVwJYg--63" value="4:Items.Get(List&amp;lt;Product&amp;gt;)" style="text;html=1;align=center;verticalAlign=middle;resizable=0;points=[];autosize=1;" vertex="1" parent="1">
          <mxGeometry x="1040" y="-20" width="160" height="20" as="geometry" />
        </mxCell>
        <mxCell id="4bT4MQSPzCxlzFVwJYg--64" value="3:employee" style="text;html=1;align=center;verticalAlign=middle;resizable=0;points=[];autosize=1;" vertex="1" parent="1">
          <mxGeometry x="1080" y="40" width="80" height="20" as="geometry" />
        </mxCell>
        <mxCell id="4bT4MQSPzCxlzFVwJYg--65" value="1:employee" style="text;html=1;align=center;verticalAlign=middle;resizable=0;points=[];autosize=1;" vertex="1" parent="1">
          <mxGeometry x="1080" y="20" width="80" height="20" as="geometry" />
        </mxCell>
        <mxCell id="4bT4MQSPzCxlzFVwJYg--66" value="4:List&amp;lt;Product&amp;gt;" style="text;html=1;align=center;verticalAlign=middle;resizable=0;points=[];autosize=1;" vertex="1" parent="1">
          <mxGeometry x="1070" y="60" width="100" height="20" as="geometry" />
        </mxCell>
        <mxCell id="4bT4MQSPzCxlzFVwJYg--68" value="GetAll()" style="text;html=1;align=center;verticalAlign=middle;resizable=0;points=[];autosize=1;" vertex="1" parent="1">
          <mxGeometry x="700" y="-50" width="60" height="20" as="geometry" />
        </mxCell>
        <mxCell id="4bT4MQSPzCxlzFVwJYg--69" value="List&amp;lt;ProductView&amp;gt;" style="text;html=1;align=center;verticalAlign=middle;resizable=0;points=[];autosize=1;" vertex="1" parent="1">
          <mxGeometry x="670" y="-30" width="120" height="20" as="geometry" />
        </mxCell>
      </root>
    </mxGraphModel>
  </diagram>
</mxfile>
